<svg xmlns="http://www.w3.org/2000/svg" xmlns:xlink="http://www.w3.org/1999/xlink" version="1.1" baseProfile="basic" x="0px" y="0px" viewBox="0 0 100 125" xml:space="preserve"><g><rect x="48.265" y="9.708" width="0.104" height="1.464"/><rect x="48.473" y="9.708" width="0.104" height="1.464"/><rect x="48.68" y="9.708" width="0.104" height="1.156"/><rect x="49.095" y="9.708" width="0.207" height="1.156"/><rect x="49.406" y="9.708" width="0.104" height="1.156"/><rect x="49.613" y="9.708" width="0.415" height="1.156"/><rect x="50.339" y="9.708" width="0.207" height="1.156"/><rect x="50.65" y="9.708" width="0.104" height="1.156"/><rect x="50.857" y="9.708" width="0.207" height="1.156"/><polygon points="51.427,11.172 51.531,11.172 51.531,9.708 51.479,9.708 51.427,9.708 51.168,9.708 51.168,10.864 51.427,10.864     "/><path d="M47.21,39.237c0.119-0.949-1.84,0.723-2.428,0.822c-1.353,0.382-1.808,1.95-2.605,2.815   c-0.577,1.517-0.975,3.21-0.533,4.832c-0.057,0.815,0.422,0.76,1.03,0.494c0.578-0.219,1.387-0.192,1.759-0.716   c0.565-1.335,1.137-2.571,1.48-3.993C46.364,42.063,46.527,40.583,47.21,39.237z"/><path d="M54.232,49.308c-0.327-0.978-0.615-2.116-1.804-1.2c-1.744,0.62-3.686,0.761-5.304,1.676   c-0.82,1.247-0.9,2.806-1.473,4.204c1.379,0.9,3.08,0.776,4.687,0.969c0.683-0.089,1.681,0.188,2.208-0.183h0   c0.837-0.934,3.957-0.995,3.049-2.696C55.6,51.098,54.411,50.54,54.232,49.308z"/><path d="M42.771,51.636l0.119-0.185C43.333,50.144,41.724,51.695,42.771,51.636z"/><path d="M51.195,46.039c2.182,0.002,0.578-2.041,0.335-3.195c-0.855-0.962-0.409-3.081-1.495-3.597   c-0.755,1.41-0.976,2.981-1.415,4.49c-0.41,0.973-0.889,2.467-0.713,3.243C49.042,46.82,50.084,46.303,51.195,46.039z"/><path d="M94.935,30.01C93.211,27.407,80.13,11.515,75.531,9.013c-4.599-2.501-11.234-3.025-15.319-4.012c0,0.002,0,0.003,0,0.005   C56.521,7.201,53.128,7.989,50.126,8c-0.027,0-0.072,0-0.127,0c-2.953-0.011-6.386-0.773-10.213-3.002   C39.781,5,39.776,5.003,39.771,5.005c-4.086,0.985-10.709,1.51-15.302,4.008C19.87,11.515,6.789,27.407,5.065,30.01   c-1.021,2,10.212,11.998,12.255,10.998l8.17-8.999c2.042,27.996,1.021,37.995-1.021,59.991c7.084,1.982,16.174,3,25.531,3   s18.447-1.018,25.531-3c-2.042-21.997-3.064-31.995-1.021-59.991l8.17,8.999C84.722,42.008,95.956,32.01,94.935,30.01z M49.999,9   h0.133c4.248,0,7.606-1.395,9.862-2.668C58.972,9.477,54.488,12,50,12c-4.487,0-8.971-2.522-9.993-5.667   C42.291,7.619,45.695,9,49.999,9z M66.119,44.143c-1.473,0.564-4.125,0.325-4.109,2.451c-0.288,1.623-0.489,3.366-1.453,4.728   c-0.64,1.243,0.951,2.628,1.231,3.908c0.272,0.871,1.106,2.538,0.555,3.122l-0.119-0.135l-0.142-0.21h0   c-0.341-0.707-1.932-2.758-2.347-1.808c0.243,0.63,0.606,2.44-0.284,1.069c-0.418-1.101-1.015-0.609-1.648-1.55   c-0.762-1.431-2.37,0.494-3.374,0.917c-1.507,0.073-3.027,1.037-4.538,0.799c-1.192-0.251-2.546,0.064-3.701-0.419   c-0.859-0.448-2.13-0.592-1.747,0.767c-0.424,0.94-0.683,2.756-1.586,3.052c-0.265-1.611-1.093,0.818-1.693,0.167   c-1.171,1.386-1.148-1.491-0.467-2.131c0.607-1.378,0.96-2.875,1.524-4.244c-0.782-0.547-1.412-1.608-2.07-2.225   c-1.22,0.281-2.394,0.732-3.562,1.155c-1.122,0.042-1.491-0.589-0.327-1.042c1.173-0.406,0.405-1.042-0.48-1.006   c-0.068-0.824-2.074-0.083-0.997-0.958c1.262-0.83,3.743-0.45,4.217-2.017c-0.065-1.719-0.046-3.469,0.497-5.133   c0.619-1.112,0.77-2.757,1.941-3.379c0.136-1.13,1.867-1.718,2.754-2.491c1.356-0.6,2.699-1.308,4.146-1.638   c0.408-1.351-0.972-3.113,0.667-3.626c0.439-0.026,0.884,1.347,0.924-0.009c0.751-1.58,0.553,1.417,1.449,1.743   c0.505,1.137,0.793,2.384,2.325,1.92c1.505,0.25,2.361,1.146,3.827,1.311c1.083,1.191,2.61,1.943,3.285,3.498   c0.955,0.915,0.527,3.618,2.374,2.719c1.536-0.354,3.099-0.088,4.613-0.615C69.654,42.89,66.792,44.154,66.119,44.143z"/><path d="M59.475,43.838l0.136-0.071c-0.36-1.514-0.923-2.737-2.462-3.393c-0.695-0.92-1.229-1.457-2.315-1.421   c-0.589-0.486-3.078-1.549-1.769,0.076c0.635,1.594,1.09,3.287,2.144,4.677c0.415,1.955,2.711,0.447,3.953,0.246L59.475,43.838z"/><path d="M58.472,46.13c-1.222,0.022-1.561,0.939-0.538,1.701c0.337,0.354,0.694,2.496,1.041,1.297   c0.099-0.206,0.205-0.408,0.319-0.607v0C59.439,47.611,60.285,45.107,58.472,46.13z"/></g><text x="0" y="115" fill="#000000" font-size="5px" font-weight="bold" font-family="'Helvetica Neue', Helvetica, Arial-Unicode, Arial, Sans-serif"></text><text x="0" y="120" fill="#000000" font-size="5px" font-weight="bold" font-family="'Helvetica Neue', Helvetica, Arial-Unicode, Arial, Sans-serif"></text></svg>